0
SECTION
2
HEADER
9
$INSUNITS
70
4
9
$ACADVER
1
AC1014
9
$HANDSEED
5
FFFF
0
ENDSEC
0
SECTION
2
TABLES
0
TABLE
2
VPORT
5
8
100
AcDbSymbolTable
0
ENDTAB
0
TABLE
2
LTYPE
5
5
100
AcDbSymbolTable
0
LTYPE
5
14
100
AcDbSymbolTableRecord
100
AcDbLinetypeTableRecord
2
BYBLOCK
70
0
0
LTYPE
5
15
100
AcDbSymbolTableRecord
100
AcDbLinetypeTableRecord
2
BYLAYER
70
0
0
ENDTAB
0
TABLE
2
LAYER
5
2
100
AcDbSymbolTable
70
2
0
LAYER
5
50
100
AcDbSymbolTableRecord
100
AcDbLayerTableRecord
2
0
70
0
6
CONTINUOUS
0
ENDTAB
0
TABLE
2
STYLE
5
3
100
AcDbSymbolTable
70
1
0
STYLE
5
11
100
AcDbSymbolTableRecord
100
AcDbTextStyleTableRecord
2
STANDARD
70
0
0
ENDTAB
0
TABLE
2
VIEW
5
6
100
AcDbSymbolTable
70
0
0
ENDTAB
0
TABLE
2
UCS
5
7
100
AcDbSymbolTable
70
0
0
ENDTAB
0
TABLE
2
APPID
5
9
100
AcDbSymbolTable
70
2
0
APPID
5
12
100
AcDbSymbolTableRecord
100
AcDbRegAppTableRecord
2
ACAD
70
0
0
ENDTAB
0
TABLE
2
DIMSTYLE
5
A
100
AcDbSymbolTable
70
1
0
ENDTAB
0
TABLE
2
BLOCK_RECORD
5
1
100
AcDbSymbolTable
70
1
0
BLOCK_RECORD
5
1F
100
AcDbSymbolTableRecord
100
AcDbBlockTableRecord
2
*MODEL_SPACE
0
BLOCK_RECORD
5
1B
100
AcDbSymbolTableRecord
100
AcDbBlockTableRecord
2
*PAPER_SPACE
0
ENDTAB
0
ENDSEC
0
SECTION
2
BLOCKS
0
BLOCK
5
20
100
AcDbEntity
100
AcDbBlockBegin
2
*MODEL_SPACE
0
ENDBLK
5
21
100
AcDbEntity
100
AcDbBlockEnd
0
BLOCK
5
1C
100
AcDbEntity
100
AcDbBlockBegin
2
*PAPER_SPACE
0
ENDBLK
5
1D
100
AcDbEntity
100
AcDbBlockEnd
0
ENDSEC
0
SECTION
2
ENTITIES
0
LINE
5
100
100
AcDbEntity
8
0
100
AcDbLine
10
-127.36343143966025
20
-2.8817428581317688
30
0
11
29.135863941504123
21
-2.8817428581316866
31
0
0
ELLIPSE
5
101
100
AcDbEntity
8
0
100
AcDbEllipse
10
29.135816344881235
20
-0.38171905970699088
30
0
11
1.7678006088611598
21
-1.7678006088611551
31
0.0
40
0.99998096171331541
41
5.4977966630161008
42
7.0685739513430637
0
LINE
5
102
100
AcDbEntity
8
0
100
AcDbLine
10
31.635840143305938
20
-0.38176665632989393
30
5.2295413636864475e-31
11
31.635840143305888
21
61.217528724834516
31
-4.9303806576313238e-30
0
ELLIPSE
5
103
100
AcDbEntity
8
0
100
AcDbEllipse
10
29.135816344881199
20
61.217481128211602
30
0
11
1.7678006088611595
21
1.767800608861156
31
0.0
40
0.9999809617133153
41
5.4977966630161124
42
7.068573951343069
0
LINE
5
104
100
AcDbEntity
8
0
100
AcDbLine
10
29.135863941504098
20
63.717504926636302
30
-1.7430698303136182e-31
11
-127.36343143966027
21
63.717504926636224
31
0
0
ELLIPSE
5
105
100
AcDbEntity
8
0
100
AcDbEllipse
10
-127.36338384303738
20
61.217481128211524
30
0
11
-1.7678006088611598
21
1.7678006088611551
31
0.0
40
0.99998096171331541
41
5.4977966630161061
42
7.0685739513430619
0
LINE
5
106
100
AcDbEntity
8
0
100
AcDbLine
10
-129.86340764146209
20
61.217528724834423
30
-5.2295413636864467e-31
11
-129.86340764146203
21
-0.38176665632997597
31
4.9303806576313238e-30
0
ELLIPSE
5
107
100
AcDbEntity
8
0
100
AcDbEllipse
10
-127.36338384303735
20
-0.38171905970707082
30
0
11
-1.7678006088611595
21
-1.767800608861156
31
0.0
40
0.9999809617133153
41
5.4977966630161106
42
7.0685739513430619
0
ELLIPSE
5
108
100
AcDbEntity
8
0
100
AcDbEllipse
10
-127.36338384303738
20
61.217481128211524
30
0
11
-3.1819872470310138
21
3.1819872470310089
31
0.0
40
0.99999788443792126
41
5.4977966630161017
42
7.0685739513430752
0
LINE
5
109
100
AcDbEntity
8
0
100
AcDbLine
10
-131.8633886029036
20
61.217528724834438
30
0
11
-131.86338860290357
21
-0.38176665632997597
31
4.9303806576313238e-30
0
LINE
5
110
100
AcDbEntity
8
0
100
AcDbLine
10
-127.01378374907797
20
65.767881034252142
30
0
11
-132.01378374907796
21
65.767881034252142
31
-9.8607613152626476e-31
0
ARC
5
111
100
AcDbEntity
8
0
100
AcDbCircle
10
-132.01378374907796
20
51.148859033436779
30
0
40
14.619022000815356
210
-1.9721522630525291e-31
220
6.1629758220391482e-32
230
1
100
AcDbArc
50
90
51
110
0
LINE
5
112
100
AcDbEntity
8
0
100
AcDbLine
10
-137.01378374907796
20
64.88624613070985
30
8.8817841970012523e-15
11
-142.63984417905493
21
62.838527598015254
31
8.8817841970012507e-15
0
ARC
5
113
100
AcDbEntity
8
0
100
AcDbCircle
10
-141.61378374907792
20
60.019449735657567
30
0
40
2.9999999999999885
210
-1.2638663641629803e-31
220
5.893505644937107e-32
230
1
100
AcDbArc
50
110.00000000000016
51
180
0
CIRCLE
5
114
100
AcDbEntity
8
0
100
AcDbCircle
10
-138.66378374907794
20
57.217881034252173
30
0
40
2.2749999999999968
210
-9.8607613152626465e-32
220
8.6281661508548133e-32
230
1
0
LINE
5
115
100
AcDbEntity
8
0
100
AcDbLine
10
-144.61378374907792
20
60.019449735657567
30
0
11
-144.61378374907792
21
0.81631233284695348
31
4.9303806576313238e-30
0
ARC
5
116
100
AcDbEntity
8
0
100
AcDbCircle
10
-138.66378374907794
20
35.142881034252227
30
8.8817841970012523e-15
40
1.5750000000000064
210
0
220
-0
230
1
100
AcDbArc
50
0
51
180
0
LINE
5
117
100
AcDbEntity
8
0
100
AcDbLine
10
-140.23878374907792
20
25.692881034252274
30
8.8817841970012523e-15
11
-140.23878374907792
21
35.142881034252241
31
8.8817841970012507e-15
0
LINE
5
118
100
AcDbEntity
8
0
100
AcDbLine
10
-137.08878374907795
20
35.142881034252241
30
0
11
-137.08878374907795
21
25.692881034252277
31
7.3955709864469857e-31
0
ARC
5
119
100
AcDbEntity
8
0
100
AcDbCircle
10
-138.66378374907794
20
25.692881034252281
30
-2.4632199568209675e-45
40
1.5750000000000064
210
-1.972152263052519e-31
220
7.3955709864469933e-32
230
1
100
AcDbArc
50
-180
51
0
0
ARC
5
120
100
AcDbEntity
8
0
100
AcDbCircle
10
-141.61378374907792
20
0.81631233284694726
30
0
40
2.9999999999999893
210
-9.8607613152626651e-32
220
8.6281661508548122e-32
230
1
100
AcDbArc
50
180
51
249.99999999999991
0
LINE
5
121
100
AcDbEntity
8
0
100
AcDbLine
10
-142.63984417905493
20
-2.002765529510742
30
0
11
-137.01378374907793
21
-4.0504840622053351
31
9.8607613152626476e-31
0
CIRCLE
5
122
100
AcDbEntity
8
0
100
AcDbCircle
10
-138.66378374907794
20
3.617881034252342
30
0
40
2.2749999999999968
210
-9.8607613152626465e-32
220
8.6281661508548133e-32
230
1
0
ELLIPSE
5
123
100
AcDbEntity
8
0
100
AcDbEllipse
10
-127.36338384303735
20
-0.38171905970707098
30
0
11
-3.1819872470310284
21
-3.1819872470310084
31
0.0
40
0.99999788443791682
41
5.4977966630161035
42
7.0685739513430788
0
ARC
5
124
100
AcDbEntity
8
0
100
AcDbCircle
10
-132.01378374907796
20
9.6869030350677221
30
0
40
14.61902200081536
210
-1.9375314036153493e-31
220
4.4286368358718306e-32
230
1
100
AcDbArc
50
249.99999999999989
51
270
0
LINE
5
125
100
AcDbEntity
8
0
100
AcDbLine
10
-132.01378374907796
20
-4.932118965747633
30
8.8817841970012523e-15
11
-127.01378374907796
21
-4.9321189657476321
31
8.8817841970012523e-15
0
LINE
5
126
100
AcDbEntity
8
0
100
AcDbLine
10
-127.36343143966025
20
-4.8817238195732591
30
0
11
29.135863941504123
21
-4.8817238195731818
31
0
0
LINE
5
127
100
AcDbEntity
8
0
100
AcDbLine
10
29.135863941504091
20
65.717485888077803
30
0
11
-127.36343143966027
21
65.717485888077718
31
0
0
CIRCLE
5
128
100
AcDbEntity
8
0
100
AcDbCircle
10
40.436216250921802
20
3.6178810342523597
30
-8.8817841970012523e-15
40
2.2749999999999968
210
-9.8607613152626465e-32
220
8.6281661508548133e-32
230
1
0
ARC
5
129
100
AcDbEntity
8
0
100
AcDbCircle
10
40.436216250921802
20
25.691400575755381
30
-8.8817841970012523e-15
40
1.5749972168135873
210
0
220
0
230
1
100
AcDbArc
50
-180
51
0
0
LINE
5
130
100
AcDbEntity
8
0
100
AcDbLine
10
42.011216250921791
20
35.141400575755355
30
-8.8817841970012523e-15
11
42.011214859328589
21
25.691400575755381
31
-8.8817841970012507e-15
0
LINE
5
131
100
AcDbEntity
8
0
100
AcDbLine
10
38.861219034108217
20
25.691400575755381
30
0
11
38.861219034108217
21
35.144361492749169
31
-7.3955709864469857e-31
0
ARC
5
132
100
AcDbEntity
8
0
100
AcDbCircle
10
40.436216250921802
20
35.141400575755355
30
-3.0106021694478492e-46
40
1.5749999999999975
210
-1.9707584496883045e-31
220
7.432633340890212e-32
230
1
100
AcDbArc
50
0
51
179.89228689068955
0
LINE
5
133
100
AcDbEntity
8
0
100
AcDbLine
10
28.786216250921825
20
-4.9321189657476152
30
0
11
33.786216250921811
21
-4.9321189657476143
31
9.8607613152626476e-31
0
ELLIPSE
5
134
100
AcDbEntity
8
0
100
AcDbEllipse
10
29.135816344881235
20
-0.38171905970699105
30
0
11
3.1819872470310138
21
-3.1819872470310089
31
0.0
40
0.99999788443792126
41
5.4977966630161008
42
7.0685739513430725
0
ARC
5
135
100
AcDbEntity
8
0
100
AcDbCircle
10
33.786216250921818
20
9.6869030350677399
30
0
40
14.619022000815354
210
-1.9721522630525291e-31
220
4.9303806576313249e-32
230
1
100
AcDbArc
50
270
51
290.00000000000006
0
LINE
5
136
100
AcDbEntity
8
0
100
AcDbLine
10
38.786216250921818
20
-4.0504840622053164
30
-8.8817841970012523e-15
11
44.412276680898799
21
-2.0027655295107221
31
-8.8817841970012507e-15
0
ARC
5
137
100
AcDbEntity
8
0
100
AcDbCircle
10
43.386216250921791
20
0.81631233284696503
30
0
40
2.9999999999999929
210
-1.6862894991731742e-32
220
4.6330423216417222e-32
230
1
100
AcDbArc
50
-69.999999999999773
51
0
0
LINE
5
138
100
AcDbEntity
8
0
100
AcDbLine
10
46.386216250921791
20
0.81631233284696503
30
0
11
46.386216250921784
21
60.019449735657574
31
-4.9303806576313238e-30
0
ARC
5
139
100
AcDbEntity
8
0
100
AcDbCircle
10
43.386216250921791
20
60.019449735657588
30
0
40
2.9999999999999982
210
-9.8607613152626344e-32
220
6.1629758220391514e-32
230
1
100
AcDbArc
50
0
51
69.999999999999858
0
LINE
5
140
100
AcDbEntity
8
0
100
AcDbLine
10
44.412276680898785
20
62.838527598015268
30
-8.8817841970012523e-15
11
38.786216250921804
21
64.886246130709864
31
-8.8817841970012523e-15
0
ARC
5
141
100
AcDbEntity
8
0
100
AcDbCircle
10
33.786216250921818
20
51.1488590334368
30
0
40
14.619022000815358
210
-1.9375314036153489e-31
220
4.4286368358718388e-32
230
1
100
AcDbArc
50
69.999999999999801
51
89.999999999999858
0
CIRCLE
5
142
100
AcDbEntity
8
0
100
AcDbCircle
10
40.436216250921802
20
57.217881034252187
30
0
40
2.2749999999999968
210
-9.8607613152626465e-32
220
8.6281661508548133e-32
230
1
0
LINE
5
143
100
AcDbEntity
8
0
100
AcDbLine
10
33.786216250921818
20
65.76788103425217
30
-8.8817841970012523e-15
11
28.786216250921829
21
65.76788103425217
31
-8.8817841970012523e-15
0
ELLIPSE
5
144
100
AcDbEntity
8
0
100
AcDbEllipse
10
29.236173413757292
20
61.31783819708771
30
0
11
3.18204109595009
21
3.1820410959500833
31
0.0
40
0.99998096171331441
41
5.4977966630161044
42
7.0685739513430708
0
LINE
5
145
100
AcDbEntity
8
0
100
AcDbLine
10
33.736216250921828
20
-0.48216180250429497
30
0
11
33.736216250921792
21
61.317923871008908
31
-5.9164567891575885e-30
0
LWPOLYLINE
5
146
100
AcDbEntity
8
0
100
AcDbPolyline
90
4
70
1
43
0.0
10
-18.198783749078039
20
8.0528810342524828
10
-24.778783749078027
20
8.0528810342524828
10
-24.778783749078027
20
28.602881034252402
10
-18.198783749078039
20
28.602881034252402
0
LWPOLYLINE
5
147
100
AcDbEntity
8
0
100
AcDbPolyline
90
4
70
1
43
0.0
10
-35.77878374907803
20
8.0528810342524828
10
-35.77878374907803
20
28.602881034252402
10
-29.198783749078039
20
28.602881034252402
10
-29.198783749078039
20
8.0528810342524828
0
LWPOLYLINE
5
148
100
AcDbEntity
8
0
100
AcDbPolyline
90
4
70
1
43
0.0
10
-62.198783749078039
20
8.0528810342524828
10
-68.77878374907803
20
8.0528810342524828
10
-68.77878374907803
20
28.602881034252402
10
-62.198783749078046
20
28.602881034252402
0
LWPOLYLINE
5
149
100
AcDbEntity
8
0
100
AcDbPolyline
90
4
70
1
43
0.0
10
-79.77878374907803
20
8.0528810342524828
10
-79.77878374907803
20
28.602881034252402
10
-73.198783749078046
20
28.602881034252402
10
-73.198783749078046
20
8.0528810342524828
0
LWPOLYLINE
5
150
100
AcDbEntity
8
0
100
AcDbPolyline
90
4
70
1
43
0.0
10
-90.778783749078045
20
8.0528810342524828
10
-90.778783749078045
20
28.602881034252402
10
-84.198783749078075
20
28.602881034252402
10
-84.198783749078032
20
8.0528810342524828
0
LWPOLYLINE
5
151
100
AcDbEntity
8
0
100
AcDbPolyline
90
4
70
1
43
0.0
10
-101.77878374907804
20
8.0528810342524828
10
-101.77878374907804
20
28.602881034252402
10
-95.198783749078046
20
28.602881034252402
10
-95.198783749078046
20
8.0528810342524828
0
LWPOLYLINE
5
152
100
AcDbEntity
8
0
100
AcDbPolyline
90
4
70
1
43
0.0
10
-112.77878374907803
20
8.0528810342524828
10
-112.77878374907803
20
28.602881034252402
10
-106.19878374907806
20
28.602881034252402
10
-106.19878374907806
20
8.0528810342524828
0
LWPOLYLINE
5
153
100
AcDbEntity
8
0
100
AcDbPolyline
90
4
70
1
43
0.0
10
-16.90178374907806
20
36.405881034252332
10
-26.275783749078045
20
36.405881034252332
10
-26.275783749078045
20
53.653881034252258
10
-16.90178374907806
20
53.653881034252258
0
LINE
5
154
100
AcDbEntity
8
0
100
AcDbLine
10
-21.461783749078052
20
37.155881034252339
30
0
11
-17.651783749078056
21
37.155881034252339
31
4.9303806576313238e-31
0
LINE
5
155
100
AcDbEntity
8
0
100
AcDbLine
10
-25.525783749078045
20
37.282881034252334
30
0
11
-25.525783749078045
21
44.775881034252301
31
-6.1629758220391547e-31
0
LINE
5
156
100
AcDbEntity
8
0
100
AcDbLine
10
-21.461783749078055
20
52.903881034252258
30
0
11
-17.778783749078066
21
52.903881034252258
31
4.9303806576313238e-31
0
LINE
5
157
100
AcDbEntity
8
0
100
AcDbLine
10
-24.028783749078023
20
27.852881034252398
30
0
11
-18.948783749078032
21
27.852881034252398
31
9.8607613152626476e-31
0
LINE
5
158
100
AcDbEntity
8
0
100
AcDbLine
10
-24.028783749078023
20
27.852881034252398
30
0
11
-24.028783749078023
21
27.535381034252396
31
2.6963019221421302e-32
0
LINE
5
159
100
AcDbEntity
8
0
100
AcDbLine
10
-18.948783749078039
20
27.852881034252398
30
0
11
-18.948783749078039
21
27.535381034252396
31
2.6963019221421302e-32
0
LINE
5
160
100
AcDbEntity
8
0
100
AcDbLine
10
-24.028783749078023
20
8.8028810342524846
30
0
11
-18.948783749078032
21
8.8028810342524846
31
6.015064402310215e-29
0
LWPOLYLINE
5
161
100
AcDbEntity
8
0
100
AcDbPolyline
90
4
70
1
43
0.0
10
-37.275783749078045
20
36.405881034252332
10
-37.275783749078045
20
53.653881034252258
10
-27.901783749078064
20
53.653881034252258
10
-27.901783749078064
20
36.405881034252332
0
LWPOLYLINE
5
162
100
AcDbEntity
8
0
100
AcDbPolyline
90
4
70
1
43
0.0
10
-60.901783749078064
20
36.405881034252332
10
-70.275783749078045
20
36.405881034252332
10
-70.275783749078045
20
53.653881034252258
10
-60.901783749078064
20
53.653881034252258
0
LWPOLYLINE
5
163
100
AcDbEntity
8
0
100
AcDbPolyline
90
4
70
1
43
0.0
10
-71.901783749078049
20
36.405881034252332
10
-81.275783749078045
20
36.405881034252332
10
-81.275783749078045
20
53.653881034252258
10
-71.901783749078049
20
53.653881034252258
0
LWPOLYLINE
5
164
100
AcDbEntity
8
0
100
AcDbPolyline
90
4
70
1
43
0.0
10
-82.901783749078049
20
36.405881034252332
10
-92.275783749078045
20
36.405881034252332
10
-92.275783749078045
20
53.653881034252258
10
-82.901783749078049
20
53.653881034252258
0
LWPOLYLINE
5
165
100
AcDbEntity
8
0
100
AcDbPolyline
90
4
70
1
43
0.0
10
-93.901783749078049
20
36.405881034252332
10
-103.27578374907804
20
36.405881034252332
10
-103.27578374907804
20
53.653881034252258
10
-93.901783749078049
20
53.653881034252258
0
LWPOLYLINE
5
166
100
AcDbEntity
8
0
100
AcDbPolyline
90
4
70
1
43
0.0
10
-104.90178374907806
20
36.405881034252332
10
-114.27578374907803
20
36.405881034252332
10
-114.27578374907803
20
53.653881034252258
10
-104.90178374907806
20
53.653881034252258
0
LWPOLYLINE
5
167
100
AcDbEntity
8
0
100
AcDbPolyline
90
4
70
1
43
0.0
10
18.598216250921848
20
21.905881034252435
10
9.2242162509218613
20
21.905881034252435
10
9.2242162509218613
20
39.153881034252372
10
18.598216250921848
20
39.153881034252372
0
LWPOLYLINE
5
168
100
AcDbEntity
8
0
100
AcDbPolyline
90
4
70
1
43
0.0
10
6.7862162509218571
20
19.30288103425243
10
-13.763783749078108
20
19.30288103425243
10
-13.763783749078108
20
25.882881034252406
10
6.7862162509218571
20
25.882881034252406
0
LWPOLYLINE
5
169
100
AcDbEntity
8
0
100
AcDbPolyline
90
4
70
1
43
0.0
10
6.7862162509218571
20
35.50288103425234
10
-13.763783749078108
20
35.50288103425234
10
-13.763783749078108
20
42.082881034252317
10
6.7862162509218571
20
42.082881034252317
0
LINE
5
170
100
AcDbEntity
8
0
100
AcDbLine
10
6.0362162509218571
20
20.05288103425243
30
0
11
6.0362162509218571
21
25.132881034252406
31
-5.4850484816148477e-29
0
LINE
5
171
100
AcDbEntity
8
0
100
AcDbLine
10
5.7187162509218572
20
20.05288103425243
30
0
11
6.0362162509218571
21
20.05288103425243
31
3.0814879110195774e-32
0
LINE
5
172
100
AcDbEntity
8
0
100
AcDbLine
10
5.7187162509218572
20
25.132881034252406
30
0
11
6.0362162509218571
21
25.132881034252406
31
3.0814879110195774e-32
0
LINE
5
173
100
AcDbEntity
8
0
100
AcDbLine
10
-13.01378374907811
20
20.052881034252433
30
0
11
-13.01378374907811
21
25.13288103425241
31
-4.3140830754274083e-31
0
LINE
5
174
100
AcDbEntity
8
0
100
AcDbLine
10
6.0362162509218571
20
36.252881034252347
30
0
11
6.0362162509218571
21
41.332881034252324
31
-5.4850484816148477e-29
0
LINE
5
175
100
AcDbEntity
8
0
100
AcDbLine
10
5.7187162509218572
20
36.252881034252347
30
0
11
6.0362162509218571
21
36.252881034252347
31
3.0814879110195774e-32
0
LINE
5
176
100
AcDbEntity
8
0
100
AcDbLine
10
5.7187162509218572
20
41.33288103425231
30
0
11
6.0362162509218571
21
41.33288103425231
31
3.0814879110195774e-32
0
LINE
5
177
100
AcDbEntity
8
0
100
AcDbLine
10
-13.01378374907811
20
36.252881034252347
30
0
11
-13.01378374907811
21
41.332881034252324
31
-4.3140830754274083e-31
0
LINE
5
178
100
AcDbEntity
8
0
100
AcDbLine
10
14.038216250921856
20
22.655881034252438
30
0
11
17.848216250921848
21
22.655881034252438
31
4.9303806576313238e-31
0
LINE
5
179
100
AcDbEntity
8
0
100
AcDbLine
10
17.848216250921851
20
22.655881034252438
30
0
11
17.848216250921848
21
30.2758810342524
31
-4.9303806576313238e-31
0
LINE
5
180
100
AcDbEntity
8
0
100
AcDbLine
10
9.974216250921863
20
22.782881034252433
30
0
11
9.974216250921863
21
30.2758810342524
31
-6.1629758220391547e-31
0
LINE
5
181
100
AcDbEntity
8
0
100
AcDbLine
10
14.038216250921852
20
38.403881034252365
30
0
11
17.721216250921845
21
38.403881034252365
31
4.9303806576313238e-31
0
CIRCLE
5
182
100
AcDbEntity
8
0
100
AcDbCircle
10
-8.368783749078105
20
12.592881034252482
30
0
40
2.4499999999999948
210
-9.8607613152626519e-32
220
4.9303806576313139e-32
230
1
0
CIRCLE
5
183
100
AcDbEntity
8
0
100
AcDbCircle
10
-8.368783749078105
20
12.592881034252482
30
0
40
2.7499999999999991
210
0
220
0
230
1
0
ENDSEC
0
SECTION
2
OBJECTS
0
DICTIONARY
5
C
100
AcDbDictionary
3
ACAD_GROUP
350
D
3
ACAD_MLINESTYLE
350
17
0
DICTIONARY
5
D
100
AcDbDictionary
0
DICTIONARY
5
1A
330
C
100
AcDbDictionary
0
DICTIONARY
5
17
100
AcDbDictionary
0
ENDSEC
0
EOF
